<svg width="67" height="37" viewBox="0 0 67 37" fill="none" xmlns="http://www.w3.org/2000/svg">
<path d="M32.65 19.77L33.44 16.97C33.33 16.97 33.19 16.85 33.05 16.8C32.1949 16.4685 31.4524 15.8995 30.91 15.16C30.6058 14.7786 30.1896 14.5023 29.72 14.37C28.8253 14.0554 28.0754 13.4264 27.61 12.6L27.53 12.47C27.4331 12.1028 27.1978 11.7873 26.8734 11.5897C26.5491 11.3921 26.1608 11.3277 25.79 11.41C25.7853 11.3247 25.8016 11.2396 25.8376 11.1621C25.8735 11.0847 25.928 11.0173 25.9962 10.9659C26.0644 10.9145 26.1443 10.8807 26.2286 10.8674C26.313 10.8542 26.3993 10.8619 26.48 10.89C27.4001 11.0986 28.3373 11.2224 29.28 11.26C29.85 11.37 30.42 11.42 30.99 11.54C31.78 11.71 32.58 11.89 33.36 12.14C34.14 12.39 34.67 12.68 35.36 12.96C35.4881 13.0404 35.6308 13.0948 35.78 13.12C35.57 12.75 35.38 12.37 35.15 12C34.5508 11.1092 34.2051 10.0722 34.15 9C34.15 7.41 34.04 5.83 33.98 4.25C33.9773 3.4664 34.1661 2.694 34.53 2C34.78 1.49 34.97 1 35.19 0.440002L35.39 -0.00999832C35.4336 0.173845 35.4905 0.354311 35.56 0.530002C35.88 1.22 36.17 1.93 36.56 2.58C37.0646 3.27932 37.2828 4.14506 37.17 5C37.1499 5.63975 37.3552 6.26624 37.75 6.77C37.8468 6.92558 37.9114 7.09901 37.94 7.28C38.1045 8.91535 38.3549 10.5409 38.69 12.15C38.81 12.88 38.89 13.61 38.97 14.35C38.9598 14.5265 39.0043 14.7018 39.0973 14.8521C39.1904 15.0024 39.3275 15.1204 39.49 15.19C40.7362 15.8568 41.8455 16.7524 42.76 17.83C43.1343 18.2008 43.5282 18.5513 43.94 18.88C44.0981 18.9919 44.2792 19.0671 44.47 19.1C44.6605 19.1608 44.8666 19.1508 45.0503 19.0718C45.2341 18.9928 45.3831 18.8501 45.47 18.67C45.7212 18.3175 46.0368 18.0155 46.4 17.78C46.4843 17.7075 46.5834 17.6545 46.6904 17.6245C46.7974 17.5945 46.9097 17.5883 47.0194 17.6064C47.129 17.6246 47.2334 17.6665 47.325 17.7293C47.4167 17.7921 47.4935 17.8743 47.55 17.97C47.92 18.45 48.27 18.97 48.63 19.42C48.7057 19.5047 48.808 19.5612 48.92 19.58C49.51 19.64 50.1 19.69 50.69 19.71C50.82 19.71 50.95 19.59 51.11 19.5C49.6354 17.4374 48.2991 15.2794 47.11 13.04C46.9614 12.7603 46.7908 12.4928 46.6 12.24C45.781 11.0891 45.1717 9.80273 44.8 8.44C44.5572 7.75682 44.2734 7.08894 43.95 6.44C43.4778 5.35326 43.407 4.13414 43.75 3C43.8187 2.84547 43.9024 2.69809 44 2.56C44.08 2.62 44.13 2.64 44.14 2.67C44.5381 3.95308 45.3461 5.07016 46.44 5.85C47.6779 6.96586 48.6369 8.3564 49.24 9.91C49.52 10.53 49.79 11.16 50.05 11.8C50.6823 13.4357 51.0796 15.1528 51.23 16.9C51.23 17.23 51.17 17.58 51.23 17.9C51.285 18.4653 51.5379 18.993 51.9441 19.3901C52.3502 19.7871 52.8836 20.0279 53.45 20.07L58.58 20.97C58.852 21.0075 59.128 21.0075 59.4 20.97C59.19 20.71 58.97 20.47 58.79 20.2C58.5594 19.8932 58.3711 19.5569 58.23 19.2C57.96 18.36 57.75 17.5 57.52 16.66C57.52 16.66 57.52 16.58 57.52 16.54C57.25 15.63 57.37 15.31 58.21 14.9C58.4759 14.739 58.7724 14.6354 59.0807 14.5958C59.3889 14.5562 59.7021 14.5815 60 14.67C60.3786 14.7913 60.7096 15.0283 60.9464 15.3476C61.1832 15.667 61.3139 16.0525 61.32 16.45C61.3935 17.5107 61.1683 18.5708 60.67 19.51C60.17 20.62 60.77 21.32 61.78 21.58C62.23 21.71 62.68 21.87 63.13 22L65.07 22.54C65.6 22.69 66.07 22.89 66.18 23.54C66.18 23.67 66.24 23.88 66.18 23.94C66.1166 23.9798 66.0455 24.0057 65.9714 24.0161C65.8973 24.0264 65.8218 24.0209 65.75 24C64.75 23.67 63.75 23.35 62.81 23C61.9156 22.649 60.9605 22.4791 60 22.5C59.5604 22.5756 59.1609 22.8019 58.87 23.14C58.46 23.52 58.17 24.03 57.79 24.45C57.06 25.24 56.29 26.01 55.55 26.79C55.36 26.99 55.21 27.22 55.03 27.44C54.3675 28.2477 53.5107 28.8739 52.54 29.26C51.7504 29.6089 51.0622 30.1525 50.54 30.84C49.9779 31.4767 49.2745 31.973 48.4861 32.289C47.6977 32.6051 46.8463 32.7321 46 32.66C45.3849 32.6651 44.7706 32.7052 44.16 32.78L43.7 32.88C44.0205 32.2952 44.464 31.7868 45 31.39C46.7 30.08 48.42 28.79 50.11 27.47C50.6737 27.0214 51.2019 26.5299 51.69 26C52.9167 24.7578 54.4216 23.8254 56.08 23.28C56.2309 23.227 56.3779 23.1635 56.52 23.09C57.1426 22.6452 57.8766 22.382 58.64 22.33C58.7735 22.3179 58.8979 22.2574 58.99 22.16C58.4 21.99 57.81 21.78 57.21 21.67C55.94 21.44 54.67 21.23 53.39 21.06C53.0932 21.0712 52.8013 21.1391 52.53 21.26C52.42 21.26 52.31 21.39 52.2 21.39C51.67 21.39 51.43 21.76 51.2 22.16C50.61 23.24 50.04 24.33 49.4 25.37C49.1107 25.8226 48.7453 26.2219 48.32 26.55C47.68 27.07 46.98 27.49 46.32 27.98C46.0371 28.1777 45.7958 28.4291 45.61 28.72C45.0787 29.5593 44.381 30.2808 43.56 30.84C42.8942 31.2749 42.3559 31.8788 42 32.59C41.926 32.6978 41.8459 32.8013 41.76 32.9L42.19 30.37C39.3 31.71 36.79 29.89 36.94 26.98L36.7 27.38C36.096 28.5823 35.3025 29.6796 34.35 30.63C33.9005 31.089 33.6369 31.6982 33.61 32.34C33.5617 32.9904 33.3177 33.6109 32.91 34.12C32.25 34.94 31.57 35.76 30.91 36.57C30.9055 36.5134 30.9055 36.4566 30.91 36.4C30.83 35.64 30.73 34.89 30.68 34.13C30.605 32.9111 30.8716 31.6955 31.45 30.62C32.08 29.42 32.83 28.29 33.55 27.14C34.27 25.99 34.99 24.84 35.71 23.69C36 23.22 36.25 22.69 36.55 22.26C36.7035 22.0316 36.8887 21.8262 37.1 21.65C37.4174 21.3578 37.7513 21.084 38.1 20.83C38.33 20.66 38.37 20.5 38.21 20.22L34.63 20.39C34.5561 20.699 34.4626 21.0029 34.35 21.3C34.08 21.92 33.57 21.97 33.18 21.41C33.0606 21.2931 32.9655 21.1538 32.9 21C32.8 20.61 32.57 20.6 32.29 20.77C31.68 21.14 31.1 21.54 30.5 21.93C30.9996 22.3889 31.329 23.0036 31.4344 23.6737C31.5397 24.3439 31.4148 25.03 31.08 25.62C30.4553 27.0367 29.4983 28.2819 28.29 29.25C27.5174 29.8135 26.5863 30.118 25.63 30.12C25.3469 30.1351 25.0631 30.1351 24.78 30.12C24.2845 30.1149 23.8001 29.9731 23.3802 29.7102C22.9602 29.4473 22.621 29.0735 22.4 28.63C22.32 28.68 22.26 28.7 22.21 28.74C21.1935 29.699 20.0109 30.4648 18.72 31C17.7923 31.4153 16.9326 31.9681 16.17 32.64C15.827 32.944 15.4032 33.142 14.95 33.21C15 32.77 15.04 32.37 15.09 31.96C15.1929 31.3318 15.478 30.7476 15.91 30.28C17.3471 28.5556 19.0124 27.0349 20.86 25.76L20.98 25.66C21.833 25.1751 22.5541 24.4884 23.08 23.66C23.5906 22.6865 24.3955 21.8991 25.38 21.41C25.32 21.41 25.3 21.34 25.29 21.35L21.83 21.64C21.7021 21.6571 21.5792 21.7005 21.469 21.7677C21.3588 21.8348 21.2638 21.9242 21.19 22.03C20.8728 22.3789 20.5172 22.6909 20.13 22.96C20.0209 23.018 19.9008 23.0524 19.7776 23.0609C19.6543 23.0694 19.5306 23.0518 19.4146 23.0094C19.2986 22.9669 19.1928 22.9005 19.1041 22.8145C19.0155 22.7284 18.9459 22.6247 18.9 22.51C18.8579 22.4111 18.7794 22.3322 18.6808 22.2894C18.5822 22.2466 18.471 22.2432 18.37 22.28C18.0283 22.3653 17.7083 22.5216 17.4309 22.7387C17.1535 22.9557 16.9249 23.2288 16.76 23.54C16.3202 24.2423 15.9229 24.9703 15.57 25.72C14.8446 27.1958 13.7744 28.4752 12.45 29.45C11.34 30.25 10.21 31.02 9.09 31.8C8.7 32.08 8.33 32.38 7.93 32.63C7.72931 32.7612 7.48494 32.8079 7.25 32.76C7.16517 32.6902 7.09823 32.6012 7.05474 32.5003C7.01126 32.3994 6.99249 32.2896 7 32.18C7.14366 31.5819 7.36912 31.0065 7.67 30.47C8.62765 29.1267 9.80399 27.9538 11.15 27C12.9 25.63 14.68 24.28 16.44 22.93L16.56 22.82L16.44 22.43L14.73 22.79C14.641 22.8092 14.549 22.8092 14.46 22.79C14.01 22.63 13.62 22.85 13.2 22.93C11.7182 23.1997 10.1968 23.1623 8.73 22.82C7.67 22.58 6.63 22.24 5.58 21.97C5.24 21.88 4.89 21.83 4.58 21.77C3.5435 21.5671 2.57616 21.1024 1.77 20.42C1.3 20.06 0.77 19.78 0.28 19.42C0.183261 19.3844 0.0896117 19.3409 0 19.29C0.14 19.29 0.24 19.22 0.31 19.24C0.909613 19.3471 1.52773 19.2334 2.05 18.92C4.30581 17.9837 6.77053 17.6662 9.19 18C10.48 18.12 11.76 18.37 13.07 18.57L12.8 18.31C11.72 17.31 10.6 16.42 9.59 15.38C8.64225 14.5638 8.00042 13.4494 7.77 12.22C7.72883 11.8087 7.77308 11.3934 7.9 11C7.93873 10.908 7.99752 10.8259 8.07206 10.7596C8.1466 10.6932 8.23502 10.6444 8.33086 10.6166C8.42669 10.5888 8.52753 10.5827 8.626 10.5989C8.72446 10.6151 8.81808 10.653 8.9 10.71L11.55 12.71C12.4593 13.3868 13.23 14.2321 13.82 15.2C13.8647 15.2961 13.94 15.3747 14.034 15.4235C14.1281 15.4724 14.2357 15.4887 14.34 15.47C15.3094 15.42 16.2806 15.42 17.25 15.47C19.1973 15.6242 21.1239 15.976 23 16.52C23.0997 16.5307 23.2003 16.5307 23.3 16.52L22.3 15.39C21.58 14.54 20.83 13.71 20.16 12.81C19.521 11.9277 19.1245 10.8933 19.01 9.81C18.8994 9.09224 18.7492 8.38116 18.56 7.68C18.347 6.99301 18.4116 6.24991 18.74 5.61C18.8875 5.38582 19.0585 5.17798 19.25 4.99C20.0095 6.16459 20.9207 7.23382 21.96 8.17C22.3033 8.58747 22.6016 9.03998 22.85 9.52C23.68 10.93 24.53 12.33 25.3 13.76C25.9002 14.7591 26.2692 15.8798 26.38 17.04C26.38 17.3 26.54 17.34 26.72 17.39C28.2934 17.8088 29.7868 18.4846 31.14 19.39C31.5798 19.6974 32.1171 19.8326 32.65 19.77ZM24.88 17.77L25.47 18.65L25.6 18.56L24.89 17.43V17.78L24.57 16.89H24.43L24.75 17.78L24.88 17.77ZM45.71 25.13C45.5787 25.3378 45.523 25.5844 45.5521 25.8284C45.5812 26.0724 45.6935 26.299 45.87 26.47L45.94 27.28L45.69 26.73H45.57L45.75 27.73L45.5 27.03H45.4L45.53 27.89L45.33 27.3H45.17L45.28 28.14L45.08 27.62H44.96L45.09 28.4L44.87 27.83C44.53 28.25 44.96 28.58 44.87 29L44.56 28.2C44.15 28.53 44.56 28.83 44.56 29.2L44.31 28.67H44.2L44.27 29.38L43.9 29H43.78L43.94 29.86L43.65 29.22H43.51L43.69 30.06L43.42 29.4H43.27L43.43 30.25L43.21 30C43.1 30 43 30.09 42.93 30.07C42.61 30 42.5 30.18 42.45 30.44C42.37 30.88 42.29 31.32 42.21 31.82C42.3927 31.6258 42.5863 31.4421 42.79 31.27C43.8838 30.5281 44.8159 29.5722 45.53 28.46C45.5759 28.379 45.637 28.3077 45.71 28.25L47.9 26.57C48.18 26.36 48.57 26.21 48.35 25.73L48.5 26.1H48.64L48.46 24.75H48.52L48.75 25.93C48.9459 25.7705 49.0943 25.5602 49.1789 25.3222C49.2636 25.0841 49.2812 24.8274 49.23 24.58L49.36 25.01L51.51 21.38C50.6169 21.9396 49.7525 22.5437 48.92 23.19C48.4091 23.6276 47.9311 24.1022 47.49 24.61C47.1 25.03 46.75 25.48 46.38 25.91C46.4109 25.7437 46.4719 25.5844 46.56 25.44C47.06 24.84 47.56 24.24 48.12 23.68C48.68 23.12 49.12 22.68 49.64 22.26C48.2752 22.7186 47.0476 23.513 46.07 24.57C45.9873 24.6634 45.9443 24.7854 45.95 24.91C46.07 25.25 46.24 25.57 46.38 25.91L46.17 26.1L46 24.88H45.86L45.71 25.13ZM50.05 13.7L48.9 13.4V13.51C49.3947 13.7576 49.9143 13.952 50.45 14.09L50.51 14L50.26 13.77C50.47 13.68 50.47 13.62 50.26 13.43C50.51 13.18 50.26 12.92 50.2 12.72C49.5724 11.0565 48.7889 9.45601 47.86 7.94C47.4861 7.35861 47.0391 6.82761 46.53 6.36C45.8616 5.88096 45.2856 5.28464 44.83 4.6C44.57 4.14 44.27 3.71 43.99 3.28C43.6935 4.19422 43.7361 5.18462 44.11 6.07C44.26 6.45 44.31 6.91 44.74 7.07C44.7666 7.2082 44.8103 7.34256 44.87 7.47C45.07 8.13 45.23 8.8 45.47 9.47C45.6881 10.0598 45.9523 10.6316 46.26 11.18C46.48 11.59 46.83 11.94 47.04 12.37C47.0953 12.5021 47.1813 12.6191 47.2908 12.7113C47.4004 12.8034 47.5304 12.8681 47.67 12.9C47.81 12.9 47.94 13.01 48.07 13.06L47.27 12.9L50.33 18.13C50.33 17.97 50.33 17.94 50.33 17.92L48.71 13.77C48.6 13.48 48.51 13.17 48.16 13.07L48.44 13.14C48.34 12.9 48.27 12.71 48.18 12.54L46 8.62C45.76 8.21 45.54 7.78 45.31 7.36L45.42 7.3C45.5068 7.47864 45.6036 7.65225 45.71 7.82C45.86 8.05 46.03 8.27 46.2 8.5L46.29 8.69C46.73 9.69 47.29 10.58 48.53 10.69L48.45 10.79L47.45 10.43C47.55 10.65 47.58 10.88 47.71 10.99C47.9075 11.1138 48.1236 11.205 48.35 11.26C48.55 11.34 48.75 11.4 48.96 11.47L47.96 11.18V11.26L48.55 11.51L48 11.53V11.64L48.77 12.03L48.25 11.89V12.01L49.05 12.42L48.5 12.3V12.42L49.74 12.92L48.74 12.61L48.69 12.71C48.82 12.78 48.93 12.86 49.06 12.92L50.34 13.4L48.75 13V13.13L50.05 13.7ZM13.34 28.28C13.51 28.08 13.78 27.9 13.82 27.68C13.8551 27.2207 13.8551 26.7593 13.82 26.3C13.8092 26.2212 13.7891 26.144 13.76 26.07H13.64V27.8H13.52V26.35H13.38C13.2883 26.9957 13.2615 27.649 13.3 28.3L13.17 26.66H13.07V28.58L13.34 28.28ZM22.28 12.8L22.14 12.56L21.93 12.13L22.41 12.8H22.47L21.47 11.07H21.57L25.38 17.44H25.44L25.37 15.86H25.48L25.41 16.55L25.6 15.81C25.6205 16.2865 25.5802 16.7637 25.48 17.23C25.35 17.77 25.69 18.1 25.98 18.48V16.48L25.84 17.77C25.8152 17.5708 25.8152 17.3692 25.84 17.17C25.9368 16.7505 25.9605 16.3175 25.91 15.89C25.6566 15.1102 25.3214 14.3593 24.91 13.65C24.09 12.18 23.2 10.75 22.33 9.3C22.1563 9.00521 21.9555 8.72733 21.73 8.47C20.9 7.56 20.05 6.66 19.2 5.74C19.0269 6.01745 18.9104 6.3264 18.8572 6.64904C18.804 6.97169 18.8152 7.30167 18.89 7.62C19.04 8.42 19.19 9.22 19.32 10.03C19.6003 11.3937 20.2232 12.6636 21.13 13.72L21.18 13.52L21.29 13.95H21.38V13.74L21.48 14.23H21.59L21.71 12.65C21.84 13.3 21.55 13.91 21.77 14.51C21.8129 14.3433 21.8363 14.1721 21.84 14C21.91 13.58 22 13.16 22.09 12.75L21.85 14.53H22C22 14.43 22 14.32 22 14.22C22.08 13.81 22.17 13.39 22.25 12.97C22.1218 13.6285 22.0715 14.2998 22.1 14.97H22.23L22.35 13.78C22.6 14.26 21.95 14.93 22.64 15.43L22.75 13.81H22.6L22.51 14.94C22.51 14.74 22.51 14.54 22.51 14.34C22.52 13.7 22.67 13.2 22.28 12.8ZM21.63 28.66L21.76 28.89L22.17 28.5L21.7 27H21.61V27.58L21.44 27.24H21.34L21.47 27.77L21.19 27.36C20.76 27.78 21.26 28.17 21.19 28.57L20.88 27.73H20.75L21.08 28.99L20.62 28H20.51L20.74 29.08L20.44 28.17H20.31C20.22 28.66 20.49 29.11 20.52 29.6L20.15 28.41C20.08 28.48 20.09 28.57 20.06 28.6C19.76 28.84 19.76 28.83 19.82 29.11C19.88 29.39 19.91 29.48 19.95 29.66H19.89L19.65 28.76L19.24 28.94C19.43 28.78 19.62 28.62 19.8 28.45C19.98 28.28 20.18 28.13 20.11 27.84L20.26 28.04H20.35L20.29 27.36L20.44 27.82H20.53V27.19L20.66 27.57H20.71L20.7 27L20.97 27.53L21.41 26.81L21.55 26.9C21.5839 26.8241 21.6042 26.7429 21.61 26.66C21.5761 26.4811 21.5327 26.3042 21.48 26.13H21.54L21.75 26.7H21.87L21.73 26.03L21.92 26.47C21.9061 26.0593 22.0103 25.6533 22.22 25.3C22.088 25.3448 21.9633 25.4089 21.85 25.49C20.1387 26.692 18.5268 28.0296 17.03 29.49C16.03 30.49 15.03 31.56 15.21 33.23C15.6211 32.9868 16.0153 32.7162 16.39 32.42C16.99 31.8757 17.6632 31.4179 18.39 31.06C18.47 31.06 18.5 30.87 18.55 30.77C18.6 30.67 18.78 30.9 18.85 30.86C19.52 30.49 20.19 30.1 20.85 29.7C20.93 29.65 20.95 29.49 21 29.38C21.38 29.38 21.66 29.1 21.63 28.66ZM11.08 16.38L12.48 17.72L12.56 17.66L11.94 16H11.82L12.1 17L11.45 15.25L12.38 16.25C12.58 16.47 12.79 16.68 12.98 16.91C13.48 17.49 14.14 17.91 14.27 18.79C14.325 19.0186 14.4388 19.2289 14.6 19.4C14.8157 19.619 15.0462 19.8228 15.29 20.01C15.2362 19.734 15.1199 19.474 14.95 19.25C14.6026 18.9305 14.3705 18.5051 14.29 18.04L14.57 18.55H14.64L14.53 18C14.6589 18.344 14.8126 18.6783 14.99 19C15.0399 18.9954 15.0901 18.9954 15.14 19C15.23 19.44 15.58 19.66 15.93 19.89L14.93 17.45L15.14 19C15.09 18.85 15.04 18.71 15 18.56C14.8255 17.673 14.5364 16.8125 14.14 16C13.3297 14.5476 12.1804 13.3125 10.79 12.4C10.2473 12.0275 9.72954 11.62 9.24 11.18C9.01 10.98 8.84 10.62 8.47 10.75C8.1 10.88 8.04 11.25 8 11.6C7.98948 11.7331 7.98948 11.8669 8 12C8.16743 13.0522 8.65648 14.0268 9.4 14.79C9.87 15.34 10.4 15.79 10.95 16.31C10.95 16.31 11.02 16.31 11.05 16.36L11.08 16.38ZM40.7 18L40.5 17.65L40.36 17.78L40.7 18.64C40.5606 18.4399 40.4432 18.2253 40.35 18C40.25 17.59 39.89 17.59 39.57 17.33L39.75 17.9C39.53 17.67 39.58 17.26 39.16 17.25C39.16 17.46 39.05 17.66 39.1 17.81C39.22 18.16 39.34 18.6 39.6 18.81C39.9805 18.9666 40.3886 19.0448 40.8 19.04L41.1 18.97C41.16 19.02 41.23 19.1 41.29 19.1C41.92 19.1 42.56 19.1 43.2 19.1V19.02L40.74 17.75L40.7 18ZM37.22 17.13L37 17.06C37.17 17.47 37.32 17.84 37.49 18.19C37.54 18.3 37.64 18.47 37.73 18.19C37.82 18.25 37.82 18.59 38.03 18.3L38.36 18.61L38.48 18.51L37.73 17.39C37.59 17.17 37.43 16.96 37.29 16.74C37.0096 16.1129 36.5224 15.6011 35.91 15.29L36.62 15.51C36.5028 15.2385 36.4091 14.9575 36.34 14.67C36.2663 14.2734 36.0815 13.906 35.8071 13.6103C35.5327 13.3147 35.18 13.103 34.79 13L34.69 12.95C33.86 12.7 33.01 12.5 32.2 12.21C30.9083 11.7801 29.5608 11.5409 28.2 11.5C27.89 11.5 27.58 11.5 27.26 11.43L27.17 11.53C27.68 12.18 28.17 12.87 28.7 13.47C29.0332 13.785 29.4331 14.0209 29.87 14.16C30.3316 14.3086 30.7411 14.5862 31.05 14.96C31.3093 15.3005 31.6043 15.6123 31.93 15.89C32.42 16.25 32.98 16.53 33.61 16.89L33.7 16.23C33.76 16.23 33.84 16.23 33.87 16.14C34.13 15.74 34.39 15.34 34.65 14.91L32.05 13.91V13.8C32.85 14.09 33.65 14.37 34.45 14.67C34.5336 14.7163 34.6296 14.7354 34.7246 14.7247C34.8196 14.7139 34.9088 14.6738 34.98 14.61C35.0427 14.5512 35.12 14.5103 35.2039 14.4915C35.2878 14.4728 35.3751 14.4769 35.4569 14.5035C35.5386 14.53 35.6117 14.5781 35.6686 14.6425C35.7254 14.707 35.7639 14.7856 35.78 14.87C35.78 15.02 35.83 15.18 35.86 15.33C35.7751 15.5586 35.7436 15.8036 35.7679 16.0462C35.7921 16.2889 35.8715 16.5227 36 16.73L35.71 16.37C35.64 16.59 35.58 16.78 35.51 16.98C35.3 17.54 35.31 17.56 35.87 17.8L36.37 18C36.37 18 36.46 17.93 36.51 17.9L36.91 18.2L36.98 18.13L36.8 17.71L37.23 18.29L37.33 18.22L36.47 16.09L37.22 17.13ZM32.35 34.2C32.61 34.07 32.82 33.9 32.74 33.56C32.81 33.56 32.92 33.56 32.94 33.49C33.12 33 33.5 32.49 33.02 31.98L33.3 32.25C33.4589 31.3878 33.89 30.5992 34.53 30C34.9978 29.4573 35.4224 28.8789 35.8 28.27L36 27.8C36.0533 27.8037 36.1067 27.8037 36.16 27.8C36.16 27.73 36.16 27.62 36.25 27.57C36.4387 27.4315 36.5683 27.2269 36.6128 26.997C36.6573 26.7671 36.6134 26.529 36.49 26.33C36.4187 26.2248 36.3552 26.1145 36.3 26H36.36L36.69 26.84H36.85L36.73 26.04L36.93 26.46H37C37 25.87 37.49 25.41 37.36 24.79L37.51 24.94C38.0134 24.1241 38.2896 23.1885 38.31 22.23C38.3076 21.8985 38.3738 21.57 38.5046 21.2654C38.6354 20.9608 38.8279 20.6865 39.07 20.46C39.1316 20.3806 39.1821 20.2931 39.22 20.2C39.46 20.02 39.02 20.02 39.13 19.81C39.5125 19.7749 39.8975 19.7749 40.28 19.81C40.52 19.81 40.75 19.9 41.05 19.95L40.83 19.69L41.69 19.81V19.6L42.49 19.69C42.7075 19.738 42.928 19.7714 43.15 19.79C43.22 19.79 43.31 19.73 43.43 19.68L43.82 19.87L43.68 19.6L44.21 19.77V19.71L43.91 19.52L43.97 19.44L44.59 19.81L44.64 19.74L44.41 19.48L44.79 19.59V19.47C44.6316 19.3915 44.4634 19.3343 44.29 19.3C43.19 19.3 42.08 19.3 40.97 19.3C40.5258 19.2834 40.0839 19.2265 39.65 19.13C39.3943 19.0064 39.1773 18.8153 39.0222 18.5774C38.8671 18.3395 38.7799 18.0638 38.77 17.78C38.771 17.5416 38.7475 17.3037 38.7 17.07C38.85 16.94 38.9 16.83 38.7 16.74C38.5795 16.6915 38.4626 16.6347 38.35 16.57L38.84 16.73C38.8496 16.667 38.8496 16.603 38.84 16.54C38.68 15.06 38.53 13.59 38.36 12.12C38.1055 10.7581 37.9318 9.3824 37.84 8C37.8589 7.51052 37.7147 7.02861 37.43 6.63C37.1955 6.33412 37.024 5.99344 36.926 5.62888C36.828 5.26432 36.8055 4.88356 36.86 4.51C36.9155 4.25134 36.8875 3.98174 36.78 3.74C36.32 2.84 35.78 1.97 35.34 1.11C34.672 2.12429 34.3237 3.31563 34.34 4.53C34.4 5.14 34.34 5.77 34.4 6.38C34.58 7.98 34.26 9.64 35.09 11.14C35.19 11.31 35.28 11.48 35.37 11.65L35.79 12.02C35.7513 12.1199 35.7245 12.2239 35.71 12.33C35.95 12.45 36.09 12.83 36.53 12.69L36 12.11H36.3L35.8 9.87C36.14 11.02 36.47 12.18 36.85 13.32C37.23 14.46 37.57 15.32 37.94 16.4L38.11 16.85C38.22 17.16 38.32 17.47 38.44 17.77C38.56 18.07 38.75 18.5 38.89 18.87C38.89 18.95 38.89 19.06 38.89 19.17L39.12 19.3C39.0294 19.4079 38.9002 19.4761 38.76 19.49C38.13 19.54 37.5 19.6 36.87 19.64C36.24 19.68 35.74 19.69 35.18 19.74C35.0468 19.7773 34.9215 19.8382 34.81 19.92C34.854 20.0132 34.9041 20.1034 34.96 20.19C34.96 20.19 35.05 20.19 35.14 20.19L34.92 20C34.98 20 35.02 19.93 35.07 19.93C35.5208 19.9948 35.9748 20.0348 36.43 20.05C37.08 20.05 37.72 19.98 38.36 19.95C38.56 19.95 38.76 19.95 38.97 19.95L39.04 20.24C38.37 20.83 37.7 21.42 37.04 22.02C36.9376 22.1234 36.8561 22.2457 36.8 22.38C35.7278 24.3909 34.5182 26.3255 33.18 28.17C32.3827 29.2201 31.7458 30.3828 31.29 31.62C31.2458 31.7933 31.2223 31.9712 31.22 32.15C31.22 32.29 31.14 32.43 31.11 32.58C30.9817 33.0235 30.9013 33.4794 30.87 33.94C30.9183 34.5846 31.0052 35.2258 31.13 35.86L31.94 34.8C32.08 34.6 32.21 34.4 32.35 34.2ZM51 20.29L50.36 19.92C50.2 19.84 50.02 19.77 49.85 19.7C50.0156 19.9303 50.2266 20.1243 50.47 20.27C50.62 20.36 50.82 20.56 50.99 20.27L52.52 20.52L52.03 20.8L52.57 20.96V20.76L53.02 20.9L52.84 20.65L53.73 20.83L53.65 20.6C53.84 20.66 53.96 20.96 54.17 20.69L55.17 20.95L55 20.77L55.7 21.13V20.88L56.4 21.24V21.17L56.28 20.97C56.7262 21.2871 57.2534 21.4709 57.8 21.5L59.11 21.92L59.18 21.83L58.71 21.43C59.26 21.8 59.71 22.34 60.46 22.27L60.19 21.9L60.36 21.75C60.438 21.9028 60.5318 22.0469 60.64 22.18C60.6836 22.2357 60.738 22.282 60.7998 22.3164C60.8616 22.3507 60.9297 22.3724 61 22.38C61.4458 22.3462 61.8929 22.4253 62.3 22.61C63.12 22.96 63.97 23.25 64.81 23.61L65.52 23.88V23.52H65.61L65.83 24.06C65.8605 23.9692 65.8806 23.8753 65.89 23.78C65.82 23.3 65.47 23.11 65.07 22.98C64 22.59 63 22.26 61.9 22C61.5105 21.9534 61.1395 21.8076 60.8226 21.5764C60.5056 21.3453 60.2534 21.0366 60.09 20.68L60.44 21.57C60.25 21.57 60.08 21.57 59.91 21.57L57.5 21.21C57.3891 21.1475 57.2718 21.0972 57.15 21.06C55.93 20.83 54.72 20.57 53.51 20.38C53.0964 20.342 52.6944 20.2226 52.3272 20.0287C51.9599 19.8348 51.6346 19.5701 51.37 19.25C51.18 19 50.98 18.76 50.78 18.52C50.78 18.46 50.85 18.4 50.85 18.34C50.9817 17.4001 50.9377 16.4438 50.72 15.52L49.61 15.18V15.28L50.24 15.61L49.79 15.49L49.73 15.57L50.23 16.23H50.05V16.34L50.76 16.72L50.27 16.58V16.67L50.58 16.86L50.38 16.93C50.38 17.14 50.57 17.22 50.58 17.45C50.645 17.8184 50.7629 18.1754 50.93 18.51C50.93 18.51 50.93 18.51 50.85 18.51H50.8C50.99 18.94 51.45 19.24 51.34 19.82C51.34 19.98 51.55 20.2 51.69 20.43L50.76 19.88V19.97L51 20.29ZM14.57 27C14.4975 26.8374 14.4471 26.6659 14.42 26.49C14.42 26.19 14.42 25.88 14.42 25.58C14.397 25.4645 14.4074 25.3449 14.4499 25.2351C14.4924 25.1253 14.5653 25.0299 14.66 24.96C15.36 24.36 16.06 23.77 16.76 23.16C16.9836 22.9782 17.191 22.7775 17.38 22.56C17.46 22.47 17.44 22.3 17.47 22.13C17.1874 22.4847 16.8799 22.8189 16.55 23.13C14.8 24.5 13.01 25.83 11.26 27.21C9.95328 28.155 8.80266 29.2989 7.85 30.6C7.45655 31.1184 7.22363 31.7407 7.18 32.39C7.18 32.51 7.25 32.72 7.34 32.75C7.41266 32.7682 7.48828 32.7714 7.56223 32.7594C7.63617 32.7474 7.70687 32.7203 7.77 32.68C8.7 32.04 9.63 31.39 10.54 30.68C10.6577 30.5736 10.7324 30.4277 10.75 30.27C10.7652 29.9702 10.7652 29.6698 10.75 29.37H10.82L10.76 30.37L10.88 30.44L12.88 28.73C12.9048 28.707 12.9247 28.6792 12.9385 28.6482C12.9522 28.6173 12.9595 28.5839 12.96 28.55V26.82C12.8408 26.8571 12.7393 26.9366 12.6748 27.0435C12.6103 27.1504 12.5872 27.2772 12.61 27.4C12.61 27.79 12.61 28.19 12.61 28.58L12.49 27.28H12.34C12.2914 27.4432 12.2579 27.6106 12.24 27.78C12.2299 27.9765 12.2299 28.1735 12.24 28.37V28.91L12.11 27.67H12C12 27.87 12 28.07 12 28.26C12 28.45 12 28.65 12 28.84H11.9L11.82 27.96H11.71V29.16H11.62L11.56 28.31H11.44L11.37 29.66H11.31V28.4L8.25 31.45L8.15 31.35L14.09 25.25L14.24 25.31V27.2H14.34L14.57 26.93C14.7704 26.3845 14.7704 25.7855 14.57 25.24C14.4451 25.82 14.4451 26.42 14.57 27ZM17.57 19.45L17.06 18.53C16.77 18 16.66 17.32 15.99 17.29C19.1446 18.0268 22.3356 18.5976 25.55 19C25.424 18.834 25.276 18.686 25.11 18.56C24.75 18.23 24.25 17.97 24.11 17.56C23.8 16.82 23.22 16.76 22.58 16.64L22.67 17.11C22.55 16.8 22.43 16.56 22.04 16.5C21.25 16.37 20.46 16.2 19.67 16.06C18.0623 15.7549 16.4251 15.6342 14.79 15.7H14.3C14.2974 15.7433 14.2974 15.7867 14.3 15.83C14.9313 16.7866 15.4895 17.7894 15.97 18.83C16.0316 18.9622 16.1378 19.0684 16.27 19.13C16.71 19.32 17.15 19.49 17.6 19.66C17.6 19.66 17.66 19.66 17.69 19.6C17.8154 19.7421 17.9692 19.8565 18.1414 19.9357C18.3136 20.0149 18.5005 20.0573 18.69 20.06C18.652 19.7141 18.7049 19.3643 18.8434 19.0451C18.982 18.7259 19.2014 18.4484 19.48 18.24L16.68 17.57L17.57 19.45ZM29.64 21.72C28.6388 21.1682 27.4609 21.0318 26.36 21.34C25.1175 21.8143 24.064 22.6816 23.36 23.81C22.5756 24.9015 22.2197 26.2432 22.36 27.58C22.3601 27.9266 22.446 28.2678 22.61 28.5732C22.774 28.8785 23.0111 29.1385 23.3 29.33C23.9889 29.6828 24.7466 29.8808 25.52 29.91C26.1425 29.9098 26.7583 29.782 27.3293 29.5343C27.9004 29.2866 28.4145 28.9244 28.84 28.47C29.8235 27.4998 30.5637 26.3108 31 25C31.19 24.5065 31.2239 23.9666 31.0969 23.4532C30.9699 22.9399 30.6882 22.478 30.29 22.13L29.8 22.5L30.58 22.82V22.92C29.22 22.83 29.23 22.97 28.89 21.65L29.36 22.05L29.64 21.72ZM43.48 23.25L43.68 23.65L43.59 23.71L43.04 23.31L43.18 23.73L42.52 22.48L43.02 22.63L43.68 22C43.2352 21.7726 42.7406 21.6599 42.2411 21.6721C41.7417 21.6844 41.2532 21.8211 40.82 22.07C40.1361 22.4871 39.4991 22.9766 38.92 23.53C38.3493 24.0454 37.9013 24.6821 37.6089 25.3933C37.3164 26.1045 37.187 26.8722 37.23 27.64C37.2308 28.1117 37.345 28.5764 37.5631 28.9947C37.7812 29.4129 38.0968 29.7726 38.4832 30.0433C38.8696 30.3139 39.3154 30.4876 39.783 30.5497C40.2507 30.6118 40.7264 30.5605 41.17 30.4C42.2149 30.0597 43.1436 29.4333 43.8506 28.5919C44.5576 27.7506 45.0147 26.7279 45.17 25.64C45.2963 25.0029 45.1861 24.3417 44.86 23.78L44.94 24.37C44.63 23.7 44.64 23 44.14 22.37L43.75 23.06L43.84 23.12L43.48 23.25ZM16 20.88L13.9 19.32C13.6196 19.0692 13.272 18.9059 12.9 18.85C10.5792 18.3685 8.20854 18.1704 5.84 18.26C4.19837 18.4828 2.59812 18.9443 1.09 19.63C1.58 19.98 2.01 20.31 2.47 20.63C2.91186 20.9154 3.3808 21.1566 3.87 21.35C4.33632 21.4759 4.81078 21.5695 5.29 21.63V21.41L5.64 21.74L5.71 21.66L5.47 21.15C5.77 21.34 5.74 21.8 6.28 21.79C6.74206 21.8751 7.1855 22.041 7.59 22.28L6.81 20.55H6.89L7.79 22.37L7.9 22.32L7.11 20.48H7.2C7.43 21 7.68 21.48 7.87 22.06C7.91719 22.2366 8.02811 22.3896 8.18137 22.4893C8.33463 22.589 8.51938 22.6284 8.7 22.6C8.7 22.6 8.77 22.6 8.79 22.6C9.70261 22.8943 10.6642 23.0064 11.62 22.93C11.71 22.93 11.81 22.84 11.91 22.78C12.14 23.1 12.51 22.89 12.84 22.88C12.9 22.88 12.96 22.78 12.99 22.75H13.64L13.12 21.7H13.18L13.47 22.22H13.58L13.44 21.61L13.76 21.98C13.76 21.64 13.76 21.38 13.38 21.36C13.0119 21.3587 12.6444 21.3319 12.28 21.28L7.73 20.54C6.64 20.36 5.54 20.2 4.45 20.04C8.29 20.16 12.08 20.83 16 20.88ZM44 32.52C44.69 32.52 45.32 32.4 45.94 32.41C46.7382 32.4701 47.5394 32.3421 48.2793 32.0365C49.0191 31.7308 49.6769 31.256 50.2 30.65C50.7985 29.8633 51.6058 29.2605 52.53 28.91C53.3042 28.6101 53.9916 28.1221 54.53 27.49L56.39 25.49L56.99 24.87L56.07 24.75C55.43 24.65 55.43 24.65 55.29 24.75L56.62 25C56.5659 25.0281 56.5059 25.0427 56.445 25.0427C56.3841 25.0427 56.3241 25.0281 56.27 25C55.8467 24.8582 55.3911 24.8432 54.9594 24.9569C54.5276 25.0706 54.1386 25.3081 53.84 25.64C52.01 27.08 50.12 28.46 48.25 29.86C48.08 29.99 47.9 30.11 47.71 30.24L48.61 30.71C48.415 30.6942 48.2266 30.6325 48.06 30.53C47.9181 30.4164 47.7418 30.3545 47.56 30.3545C47.3782 30.3545 47.2019 30.4164 47.06 30.53C46.26 31.05 45.44 31.53 44.62 32.03L44.53 31.95L45.09 31.5L45.02 31.44L44 32.52ZM60.29 19.68L61 16.78H60.89L60.72 16.89C60.8339 16.7517 60.9034 16.5823 60.9195 16.4039C60.9355 16.2255 60.8974 16.0464 60.81 15.89C60.7047 15.5802 60.4906 15.3192 60.2073 15.1555C59.924 14.9918 59.591 14.9366 59.27 15C57.63 15.24 57.12 15.37 57.81 17.2C58.0118 17.7881 58.1721 18.3895 58.29 19C58.3478 19.4316 58.5403 19.8341 58.84 20.15C59.0494 20.3442 59.2311 20.5663 59.38 20.81C59.4386 20.9345 59.5441 21.0306 59.6734 21.0775C59.8027 21.1243 59.9453 21.1181 60.07 21.06C59.9974 20.979 59.9368 20.8881 59.89 20.79C59.8091 20.6011 59.752 20.403 59.72 20.2C59.7267 19.9768 59.7603 19.7552 59.82 19.54L59.5 19.89C59.5 19.55 59.5 19.18 59.57 18.83C59.6852 18.4792 59.6852 18.1008 59.57 17.75L58.89 16.36C59.25 16.42 59.19 17.1 59.68 17.01C59.6381 17.1152 59.6145 17.2268 59.61 17.34C59.79 18.06 60 18.82 60.29 19.68ZM45.64 24.68C46.5689 23.4835 47.8018 22.558 49.21 22C50.1 21.6 50.98 21.18 51.9 20.75C51.84 20.7 51.8 20.64 51.76 20.64C50.81 20.52 49.86 20.41 48.9 20.31C48.8581 20.3123 48.8173 20.3243 48.7808 20.3452C48.7444 20.366 48.7133 20.3951 48.69 20.43C48.4219 20.8743 47.9916 21.197 47.49 21.33C47.1878 21.409 46.8983 21.5301 46.63 21.69C46.5226 21.8188 46.3902 21.9245 46.2407 22.0006C46.0913 22.0767 45.928 22.1218 45.7607 22.133C45.5933 22.1442 45.4255 22.1214 45.2672 22.0659C45.109 22.0103 44.9636 21.9233 44.84 21.81L44.57 22.08L45.64 24.68ZM38.44 23.57C41.05 21.26 41.99 20.96 43.86 21.83C44.77 21.51 44.36 20.75 44.48 20.11H40.35C39.9418 20.1128 39.5481 20.2615 39.2399 20.5293C38.9318 20.797 38.7297 21.1662 38.67 21.57C38.56 22.21 38.51 22.89 38.44 23.54V23.57ZM32.79 20.4C32.99 20.73 33.15 21.05 33.36 21.33C33.57 21.61 33.97 21.65 34.13 21.21C34.3963 20.5553 34.6299 19.8878 34.83 19.21C35.13 18.06 35.37 16.9 35.62 15.75C35.6648 15.5188 35.6648 15.2812 35.62 15.05C35.62 14.72 35.33 14.66 35.09 14.88C35.0216 14.9417 34.9581 15.0086 34.9 15.08C33.8532 16.5311 33.1675 18.2109 32.9 19.98L34.25 18.92C34.19 19 34.17 19 32.79 20.37V20.4ZM47.19 21.17C47.3183 21.17 47.4461 21.1532 47.57 21.12C47.7835 21.0927 47.9846 21.0045 48.1493 20.8659C48.314 20.7273 48.4353 20.5441 48.4986 20.3384C48.5619 20.1327 48.5645 19.9131 48.5063 19.7058C48.448 19.4986 48.3312 19.3126 48.17 19.17C47.89 18.79 47.62 18.4 47.35 18.01C47.08 17.62 46.93 17.6 46.69 17.8C46.25 18.16 45.87 18.59 45.45 19L45.94 19.25L45.83 19.36L45.94 19.15L46.17 19.7V19.26L46.39 19.79H46.46L46.34 19.29H46.43L47 20L47.08 19.95L46.92 19.41L46.99 19.36L47.58 20.13L47.48 20.26L45 19.89C44.8605 20.0875 44.7857 20.3233 44.7857 20.565C44.7857 20.8067 44.8605 21.0425 45 21.24L44.95 20.76C45.0285 20.9132 45.0793 21.0791 45.1 21.25L45.16 21.72H45.25L45.2 21.09H45.26L45.43 21.82H45.51L45.44 21.22H45.5L45.67 22C45.94 21.72 46.62 21.94 46.44 21.25L46.57 21.5L47.19 21.17ZM24.35 19.17L20.51 18.39C20.72 18.85 20.93 19.31 21.15 19.76C21.2687 20.1604 21.4696 20.5317 21.74 20.85C21.93 21 22.4 20.85 22.74 20.76H22.82L24.17 20.59L24.05 20.34C24.49 20.82 24.94 20.4 25.37 20.52L25.47 20.36L24.64 19.69L24.73 19.6C24.9679 19.8746 25.2217 20.135 25.49 20.38C25.81 20.64 26.17 20.48 26.57 20.32C26.42 20.12 26.19 20.01 26.05 19.83C25.9683 19.7184 25.8614 19.6277 25.738 19.5651C25.6147 19.5026 25.4783 19.47 25.34 19.47C24.7 19.47 24.07 19.31 23.43 19.22V19.11L24.35 19.17ZM45.5 31.24C47.134 30.4297 48.6791 29.451 50.11 28.32C52.18 26.77 54.28 25.26 56.38 23.75C56.7637 23.4731 57.1802 23.2447 57.62 23.07C58.09 22.87 58.62 22.77 59.1 22.61C59.2658 22.5422 59.4263 22.4619 59.58 22.37L59.45 22.32C58.378 22.4933 57.3453 22.8556 56.4 23.39C56.3041 23.437 56.2035 23.4738 56.1 23.5C54.7393 23.9721 53.4878 24.7135 52.42 25.68C50.743 27.3439 48.9001 28.8316 46.92 30.12C46.42 30.46 46 30.86 45.5 31.24ZM18.9 21.12C18.8574 21.3748 18.8692 21.6358 18.9347 21.8857C19.0002 22.1356 19.1179 22.3688 19.28 22.57C19.3139 22.632 19.3604 22.6863 19.4164 22.7295C19.4724 22.7726 19.5368 22.8036 19.6054 22.8206C19.6741 22.8375 19.7455 22.84 19.8151 22.8278C19.8848 22.8157 19.9511 22.7892 20.01 22.75C20.5824 22.3761 21.0586 21.8724 21.4 21.28L20 20.63L20.16 20.52L19.34 20.36C19.7035 20.2816 20.0796 20.2811 20.4433 20.3587C20.807 20.4363 21.1501 20.5901 21.45 20.81C21.31 20.49 21.21 20.24 21.09 19.99C20.9021 19.5691 20.6918 19.1585 20.46 18.76C20.4045 18.6414 20.3149 18.542 20.2027 18.4744C20.0905 18.4069 19.9607 18.3743 19.8299 18.3807C19.6991 18.3871 19.5731 18.4323 19.4681 18.5106C19.363 18.5888 19.2836 18.6965 19.24 18.82C19.24 18.92 19.29 19.09 19.24 19.23C19.24 20.18 19.16 21.13 19.12 22.13L18.9 21.12ZM32.5 19.89C31.22 20.01 30 20.11 28.79 20.26C28.4096 20.3436 28.0138 20.3247 27.6431 20.2052C27.2724 20.0857 26.94 19.87 26.68 19.58C26.39 19.26 26.48 18.92 26.37 18.58L26.28 18.39L26.12 18.72L25.72 18.2L25.63 18.27C26.01 18.8 26.4 19.33 26.77 19.86C26.8732 19.985 26.936 20.1385 26.95 20.3C26.95 20.39 26.74 20.51 26.61 20.53C26.06 20.61 25.51 20.66 24.97 20.72L23.97 20.82V21C24.1746 21.0041 24.3785 21.0242 24.58 21.06C24.83 21.14 25.18 20.79 25.35 21.23C25.3785 21.2421 25.4091 21.2483 25.44 21.2483C25.4709 21.2483 25.5015 21.2421 25.53 21.23C25.53 21.18 25.53 21.09 25.53 21.01L25.95 21.24L25.81 20.97L26.19 21.09L26.11 20.94L27.85 20.78V20.68L28.91 20.91V20.55C29.28 20.78 29.61 21.02 30 20.71L29.82 20.31L30.35 20.57L30.2 20.23L30.77 20.54C30.77 20.46 30.77 20.41 30.77 20.43H31.62L29.3 22.28L29.36 22.37L32.06 20.58V20.52C32.2238 20.4958 32.3825 20.4451 32.53 20.37C32.55 20.32 32.5 20.13 32.5 19.89ZM39.14 15.29C39.14 15.86 39.14 16.38 39.14 16.9C39.1527 16.9541 39.1785 17.0043 39.2151 17.0462C39.2517 17.088 39.298 17.1202 39.35 17.14C39.6884 17.2099 40.0224 17.3001 40.35 17.41C41.26 17.81 42.16 18.26 43.06 18.69L43.54 18.91C42.13 17.67 41 16.13 39.14 15.29ZM38.53 18.89L35.35 17.89L35 19.55L38.47 19.27L38.53 18.89ZM26.71 19.2L29.11 19.49C29.03 19.15 29.4 18.86 29.03 18.55L28.96 19.07V18.45L26.74 17.67C26.6669 17.6619 26.5931 17.6619 26.52 17.67L26.71 19.2ZM37.92 17.2C37.9282 17.1436 37.9282 17.0864 37.92 17.03C37.53 15.85 37.15 14.65 36.72 13.48C36.63 13.24 36.35 13.08 36.16 12.88L36.09 12.96C36.59 14.37 36.84 15.93 37.92 17.18V17.2ZM49.07 13.78L49.01 13.88C49.32 14.36 50.01 14.26 50.4 14.67L49.25 14.23V14.33C49.3159 14.4045 49.3896 14.4715 49.47 14.53C49.5869 14.596 49.7071 14.6561 49.83 14.71H49.43C49.5819 14.9238 49.7829 15.098 50.016 15.2181C50.2492 15.3381 50.5077 15.4005 50.77 15.4C50.7 15.06 50.64 14.73 50.55 14.4C50.5398 14.3593 50.52 14.3217 50.4921 14.2904C50.4642 14.259 50.4292 14.2349 50.39 14.22C49.92 14 49.5 13.88 49.07 13.76V13.78ZM16 22.2C15.74 21.63 14.35 21.61 13.91 22.06L14.3 22.49H14.6L14.47 22.21L15.03 22.4V22.2H16ZM16.81 20.2H16.87L17.24 20.89C17.14 20.13 16.9 19.89 16.08 19.81C16.1335 20.0823 16.2526 20.3375 16.4268 20.5536C16.601 20.7696 16.8252 20.94 17.08 21.05L16.81 20.2ZM29.87 19.2C30.06 19.77 30.33 19.87 31.25 19.73L29.76 18.85V19.62H29.87V19.2ZM56.75 24L57.32 23.5V23.43L55.96 24.31L57.34 24.57V24.45L56.44 24.24V24.19L57.58 24.33V24.2L56.75 24ZM18.75 20.32L16 19.32C16.8051 19.8851 17.7488 20.2204 18.73 20.29L18.75 20.32ZM21.64 21.49C21.8957 21.3916 22.1602 21.3179 22.43 21.27C22.7442 21.2582 23.0588 21.275 23.37 21.32L23.23 21.08H23.5V20.95C22.8737 20.9301 22.2477 20.9975 21.64 21.15V21.49ZM50.27 20.31C50.1122 20.0726 49.8817 19.8927 49.6132 19.7972C49.3446 19.7016 49.0523 19.6956 48.78 19.78V20.13L50.27 20.31ZM23.27 14.71C23.05 15.5 23.16 16.06 23.64 16.4C23.58 15.78 23.75 15.18 23.28 14.68L23.27 14.71ZM18.4 21.83L18.65 21.49L18.57 21.39L16.87 21.78V21.85L18.13 21.96L17.92 21.8L18.49 22.07V22L18.4 21.83ZM23.12 14.35H23.07V14.93L23 13.93H22.82C22.99 14.43 22.65 14.93 22.95 15.46C22.9453 15.3968 22.9453 15.3333 22.95 15.27L23 15.67H23.12V14.35ZM29 21.08L29.89 21.55L30.5 21H30.45L29 21.08ZM43.39 22.54L43.62 22.89C43.62 22.75 43.62 22.61 43.62 22.57C43.9397 22.3055 44.2735 22.0584 44.62 21.83C44.84 21.68 44.79 21.57 44.62 21.43L43.39 22.54ZM16.13 24C15.68 24.34 15.13 24.64 15.47 25.4L16.13 24ZM29.13 19.89L27.73 19.71C28 20.09 28.26 20.13 29.13 19.85V19.89ZM24.3 16.93L24.11 16.05C24.0153 16.29 23.9992 16.5538 24.0639 16.8036C24.1285 17.0533 24.2707 17.2761 24.47 17.44L24.39 16.66H24.34L24.3 16.93ZM57.13 24.78V24.62C56.63 24.62 56.13 24.33 55.66 24.45V24.58L57.13 24.78ZM24.24 15.67L24.14 15.73L25.36 17.79L25.45 17.74L24.24 15.67ZM15.81 21.27C15.81 21.63 16.04 21.75 16.32 21.61C16.42 21.61 16.47 21.4 16.52 21.28C16.57 21.16 16.36 21.13 16.34 21.14C16.2047 21.24 16.0745 21.3468 15.95 21.46L15.81 21.27ZM58.48 23L57.58 23.51C58.2 23.76 58.28 23.26 58.48 23ZM14 27.57H14.16L14 25.9V27.57ZM15 25.02H14.94V26.26H15V25.02ZM26.12 19.44L26.9 20.23L26.12 19.44ZM14.25 21.23L14.19 21.33L14.52 21.59L14.64 21.37L14.83 21.51L14.9 21.37C14.74 21.18 14.49 21.22 14.25 21.23ZM15.13 21.23L15.03 21.4L15.72 21.69L15.79 21.52L15.13 21.23ZM23.83 15.61H23.69L23.82 16.7H23.93L23.83 15.61ZM29.47 18.72C29.09 19.36 29.09 19.52 29.4 19.51L29.47 18.72Z" fill="#E8E4D9"/>
</svg>
